<svg xmlns="http://www.w3.org/2000/svg" width="2166.056" height="286.141" viewBox="0 0 2166.056 286.141"><path d="M-185-4530.79c260.547-90.57,282.932-22.968,525.429,25.567,125.524,17.541,197.262-105.2,305.92-71.069s171.906,90.137,263.016,90.137c187.469,0,119.383-24.268,259.286-90.137,51.764-24.371,152.6,108.058,229.44,90.137,85.438-19.927,147.266-128.035,216.382-136.938,36.351-4.683,87.428,43.207,117.518,92.3,138.037,225.232,0,152.105,0,152.105s-104.672,73.333-192.344,24.833c-53.349-30.685-126.65-71.218-187.31-56.062-49.518,12.372-93.093,30.7-116.862,39.573-164.034,61.257-158.633-14.771-233.053-30.316-173.431-36.229-186.536,80.381-284.551,0-53.079-42.732-105.617,21.972-239.4,21.972-143.6,0-160.633-57.243-349.035,0s-190.445-38.274-314.431,0C-424.816-4304.654-445.547-4440.22-185-4530.79Z" transform="translate(372.717 4623.411)" fill="#fff"/></svg>